# Blender 4.2.0
# www.blender.org
mtllib bush.mtl
o Plane
v -0.989868 0.000000 0.899853
v -0.010132 0.000000 1.100147
v -1.000000 0.000000 -1.000000
v 0.000000 0.000000 -1.000000
v -1.755183 0.000000 2.682892
v -0.785788 0.000000 2.928402
v -4.324537 0.000000 4.255872
v -3.509289 0.000000 4.834985
v -1.255659 0.000000 5.326219
v -0.256144 0.000000 5.357396
v -5.447171 0.000000 8.585991
v -4.477288 0.000000 8.829565
v -2.274462 0.000000 9.065796
v -1.308729 0.000000 9.325336
vn -0.0000 1.0000 -0.0000
vn -0.0000 -1.0000 -0.0000
vt 0.000000 0.000000
vt 1.000000 1.000000
vt 0.000000 1.000000
vt 1.000000 0.000000
s 0
f 1/1/1 4/2/1 3/3/1
f 1/1/1 6/4/1 2/4/1
f 5/1/1 8/4/1 6/4/1
f 6/4/2 9/1/2 5/1/2
f 8/4/1 11/1/1 12/4/1
f 9/1/2 14/4/2 13/1/2
f 1/1/1 2/4/1 4/2/1
f 1/1/1 5/1/1 6/4/1
f 5/1/1 7/1/1 8/4/1
f 6/4/2 10/4/2 9/1/2
f 8/4/1 7/1/1 11/1/1
f 9/1/2 10/4/2 14/4/2
