# Blender 4.2.0
# www.blender.org
mtllib circle.mtl.mtl
o Cube
v -0.700000 -1.000000 -0.700000
v -0.700000 1.000000 -0.700000
v -0.700000 -0.700000 -1.000000
v -0.700000 0.700000 -1.000000
v -1.000000 1.000000 -1.000000
v -1.000000 -1.000000 -1.000000
v 0.000000 -1.000000 -1.000000
v 0.000000 1.000000 -1.000000
v 0.000000 -1.000000 -0.700000
v 0.000000 1.000000 -0.700000
v 0.000000 -0.700000 -1.000000
v 0.000000 0.700000 -1.000000
vn -0.0000 -1.0000 -0.0000
vn -0.0000 -0.0000 -1.0000
vn -0.0000 1.0000 -0.0000
vt 0.162500 0.537500
vt 0.250000 0.500000
vt 0.250000 0.537500
vt 0.412500 0.287500
vt 0.625000 0.250000
vt 0.587500 0.287500
vt 0.625000 0.375000
vt 0.587500 0.375000
vt 0.375000 0.375000
vt 0.375000 0.250000
vt 0.837500 0.537500
vt 0.750000 0.500000
vt 0.875000 0.500000
vt 0.125000 0.500000
vt 0.412500 0.375000
vt 0.750000 0.537500
s 0
f 1/1/1 7/2/1 9/3/1
f 3/4/2 5/5/2 4/6/2
f 4/6/2 8/7/2 12/8/2
f 3/4/2 7/9/2 6/10/2
f 2/11/3 8/12/3 5/13/3
f 1/1/1 6/14/1 7/2/1
f 3/4/2 6/10/2 5/5/2
f 4/6/2 5/5/2 8/7/2
f 3/4/2 11/15/2 7/9/2
f 2/11/3 10/16/3 8/12/3
