# Blender 4.2.0
# www.blender.org
mtllib circle.mtl
o Plane
o Circle
v -0.707107 -0.003097 0.707107
v -1.000000 -0.003097 0.000000
v -1.000000 0.230000 0.000000
v -0.707107 0.230000 0.707107
v 0.000000 -0.003097 0.000000
v 0.000000 0.230000 0.000000
v -0.359555 -0.003097 0.359555
v -0.508487 -0.003097 0.000000
v -0.508487 0.230000 0.000000
v -0.359555 0.230000 0.359555
v -0.822273 -0.001822 0.822273
v -1.162870 -0.001822 0.000000
v -1.162870 0.135320 0.000000
v -0.822273 0.135320 0.822273
vn 1.0000 -0.0000 -0.0000
vn 0.7071 -0.0000 0.7071
vn -0.7071 -0.0000 -0.7071
vn -0.0000 -0.0000 -1.0000
vn -0.9239 -0.0000 0.3827
vn -0.0000 -0.0000 1.0000
vn -0.0000 -1.0000 -0.0000
vn 0.4920 -0.8464 -0.2038
vn 0.9239 -0.0000 -0.3827
vn -0.0000 1.0000 -0.0000
vt 0.000000 0.000000
s 0
usemtl Material.001
f 6/1/1 4/1/1 10/1/1
f 4/1/2 5/1/2 6/1/2
f 4/1/3 7/1/3 1/1/3
f 6/1/4 2/1/4 3/1/4
f 9/1/5 7/1/5 10/1/5
f 2/1/6 9/1/6 3/1/6
f 3/1/7 10/1/7 4/1/7
f 2/1/6 13/1/6 12/1/6
f 1/1/3 14/1/3 4/1/3
f 4/1/8 13/1/8 3/1/8
f 14/1/9 12/1/9 13/1/9
f 9/1/10 3/1/10 6/1/10
f 10/1/7 9/1/7 6/1/7
f 4/1/2 1/1/2 5/1/2
f 4/1/3 10/1/3 7/1/3
f 6/1/4 5/1/4 2/1/4
f 9/1/5 8/1/5 7/1/5
f 2/1/6 8/1/6 9/1/6
f 3/1/7 9/1/7 10/1/7
f 2/1/6 3/1/6 13/1/6
f 1/1/3 11/1/3 14/1/3
f 4/1/8 14/1/8 13/1/8
f 14/1/9 11/1/9 12/1/9
