# Blender 4.2.0
# www.blender.org
mtllib gem.mtl
o Circle
v 0.000000 0.000000 -1.500000
v -0.866025 0.000000 -0.750000
v -0.866025 0.000000 0.750000
v 0.000000 0.000000 1.500000
v 0.866025 0.000000 0.750000
v 0.866025 0.000000 -0.750000
v 0.000000 0.500000 -0.968343
v -0.559073 0.500000 -0.484171
v -0.559073 0.500000 0.484171
v 0.000000 0.500000 0.968343
v 0.559073 0.500000 0.484171
v 0.559073 0.500000 -0.484171
v 0.000000 -0.500000 -0.968343
v -0.559073 -0.500000 -0.484171
v -0.559073 -0.500000 0.484171
v 0.000000 -0.500000 0.968343
v 0.559073 -0.500000 0.484171
v 0.559073 -0.500000 -0.484171
vn 0.5103 0.6265 0.5892
vn -0.8522 0.5232 -0.0000
vn 0.8522 0.5232 -0.0000
vn -0.5103 0.6265 0.5892
vn -0.5103 0.6265 -0.5892
vn 0.5103 0.6265 -0.5892
vn -0.0000 1.0000 -0.0000
vn 0.5103 -0.6265 0.5892
vn -0.8522 -0.5232 -0.0000
vn 0.8522 -0.5232 -0.0000
vn -0.5103 -0.6265 0.5892
vn -0.5103 -0.6265 -0.5892
vn 0.5103 -0.6265 -0.5892
vn -0.0000 -1.0000 -0.0000
vt 0.000000 0.000000
s 0
usemtl #A0C743
f 5/1/1 10/1/1 4/1/1
f 3/1/2 8/1/2 2/1/2
f 6/1/3 11/1/3 5/1/3
f 4/1/4 9/1/4 3/1/4
f 2/1/5 7/1/5 1/1/5
f 1/1/6 12/1/6 6/1/6
f 9/1/7 11/1/7 7/1/7
f 16/1/8 5/1/8 4/1/8
f 2/1/9 15/1/9 3/1/9
f 5/1/10 18/1/10 6/1/10
f 3/1/11 16/1/11 4/1/11
f 13/1/12 2/1/12 1/1/12
f 6/1/13 13/1/13 1/1/13
f 13/1/14 17/1/14 15/1/14
f 5/1/1 11/1/1 10/1/1
f 3/1/2 9/1/2 8/1/2
f 6/1/3 12/1/3 11/1/3
f 4/1/4 10/1/4 9/1/4
f 2/1/5 8/1/5 7/1/5
f 1/1/6 7/1/6 12/1/6
f 7/1/7 8/1/7 9/1/7
f 9/1/7 10/1/7 11/1/7
f 11/1/7 12/1/7 7/1/7
f 16/1/8 17/1/8 5/1/8
f 2/1/9 14/1/9 15/1/9
f 5/1/10 17/1/10 18/1/10
f 3/1/11 15/1/11 16/1/11
f 13/1/12 14/1/12 2/1/12
f 6/1/13 18/1/13 13/1/13
f 15/1/14 14/1/14 13/1/14
f 13/1/14 18/1/14 17/1/14
f 17/1/14 16/1/14 15/1/14
