# Blender 4.2.0
# www.blender.org
mtllib ray.mtl
o Plane
o Cylinder
v -0.922805 -0.021015 -0.384694
v 0.128248 1.978985 0.991519
v -0.832544 0.021015 -0.553560
v -0.063125 2.021015 0.997784
v -0.218606 1.645652 0.975587
v -0.539093 1.312318 0.841984
v -0.794557 0.978985 0.606826
v -0.954186 0.645652 0.298475
v -0.998726 0.312319 -0.045876
v -0.400581 1.687681 0.916020
v -0.689720 1.354348 0.723771
v -0.895669 1.021015 0.444224
v -0.993587 0.687681 0.111097
v -0.971664 0.354348 -0.235430
vn -0.2965 0.0665 0.9527
vn -0.8868 0.0665 -0.4574
vn -0.9897 0.0665 -0.1266
vn -0.9733 0.0665 0.2196
vn -0.8395 0.0665 0.5392
vn -0.6045 0.0665 0.7939
vn 0.0181 -0.0665 0.9976
vn -0.9856 -0.0665 -0.1555
vn -0.9793 -0.0665 0.1910
vn -0.8549 -0.0665 0.5145
vn -0.6274 -0.0665 0.7758
vn -0.3242 -0.0665 0.9436
vt 0.187500 0.916667
vt 0.156250 1.000000
vt 0.156250 0.916667
vt 0.187500 0.500000
vt 0.156250 0.583333
vt 0.156250 0.500000
vt 0.187500 0.583333
vt 0.156250 0.666667
vt 0.187500 0.666667
vt 0.156250 0.750000
vt 0.187500 0.750000
vt 0.156250 0.833333
vt 0.187500 0.833333
vt 0.187500 1.000000
s 0
usemtl #73E1E7
f 1/4/2 14/5/2 3/6/2
f 8/9/4 12/10/4 13/8/4
f 6/13/6 10/3/6 11/12/6
f 1/4/8 9/7/8 14/5/8
f 8/9/10 7/11/10 12/10/10
f 6/13/12 5/1/12 10/3/12
usemtl #50BEEF
f 5/1/1 4/2/1 10/3/1
f 9/7/3 13/8/3 14/5/3
f 7/11/5 11/12/5 12/10/5
f 5/1/7 2/14/7 4/2/7
f 9/7/9 8/9/9 13/8/9
f 7/11/11 6/13/11 11/12/11
