# Blender 4.2.0
# www.blender.org
mtllib spider-leg.mtl
o Cube.001
v -3.284912 1.947703 -2.001695
v -3.267614 2.347326 -2.003335
v -3.247169 1.947703 -1.603480
v -3.229871 2.347326 -1.605119
v -1.679271 1.650769 -1.683033
v -1.619207 2.234958 -1.688726
v -1.729987 1.650769 -2.218122
v -1.669923 2.234958 -2.223815
v -4.429863 1.959671 -1.854111
v -4.500169 2.274053 -1.847447
v -4.399460 1.959671 -1.533332
v -4.469766 2.274053 -1.526669
v -5.697698 1.434748 -1.705192
v -5.890024 1.616089 -1.686963
v -5.672697 1.434748 -1.441410
v -5.865022 1.616089 -1.423181
v -6.271907 0.000934 -1.589190
v -6.404887 0.050164 -1.576587
v -6.258475 0.000934 -1.447467
v -6.391454 0.050164 -1.434864
vn 0.0515 0.0044 0.9987
vn 0.0608 0.0015 0.9982
vn -0.1852 -0.9825 0.0176
vn 0.0693 0.9976 -0.0066
vn -0.1370 0.0044 -0.9906
vn 0.0739 -0.0046 0.9973
vn -0.1251 -0.0069 -0.9921
vn -0.0103 -0.9999 0.0010
vn -0.0586 0.9983 0.0056
vn -0.9443 0.3168 0.0895
vn -0.1079 -0.0145 -0.9941
vn 0.3787 -0.9248 -0.0359
vn -0.4237 0.9049 0.0402
vn 0.0806 -0.0372 0.9960
vn -0.1221 -0.0298 -0.9921
vn 0.9223 -0.3764 -0.0874
vn 0.0520 0.0018 0.9986
vn 0.0636 -0.0069 0.9980
vn -0.1366 0.0018 -0.9906
vn 0.0808 -0.0145 0.9966
vn -0.1278 0.0015 -0.9918
vn -0.1148 -0.0046 -0.9934
vn 0.0664 -0.0298 0.9973
vn -0.1079 -0.0372 -0.9935
vt 0.625000 0.388889
vt 0.375000 0.500000
vt 0.375000 0.388889
vt 0.625000 0.500000
vt 0.263889 0.750000
vt 0.263889 0.500000
vt 0.736111 0.500000
vt 0.625000 0.750000
vt 0.375000 0.750000
vt 0.625000 0.861111
vt 0.375000 0.861111
vt 0.736111 0.750000
s 0
f 6/1/1 3/2/1 5/3/1
f 4/4/2 11/2/2 3/2/2
f 3/2/3 7/5/3 5/6/3
f 6/7/4 2/8/4 4/4/4
f 1/9/5 8/10/5 7/11/5
f 12/4/6 15/2/6 11/2/6
f 2/8/7 9/9/7 10/8/7
f 3/2/8 9/9/8 1/9/8
f 2/8/9 12/4/9 4/4/9
f 14/8/10 20/4/10 16/4/10
f 10/8/11 13/9/11 14/8/11
f 11/2/12 13/9/12 9/9/12
f 10/8/13 16/4/13 12/4/13
f 15/2/14 20/4/14 19/2/14
f 13/9/15 18/8/15 14/8/15
f 15/2/16 17/9/16 13/9/16
f 6/1/17 4/4/17 3/2/17
f 4/4/18 12/4/18 11/2/18
f 3/2/3 1/9/3 7/5/3
f 6/7/4 8/12/4 2/8/4
f 1/9/19 2/8/19 8/10/19
f 12/4/20 16/4/20 15/2/20
f 2/8/21 1/9/21 9/9/21
f 3/2/8 11/2/8 9/9/8
f 2/8/9 10/8/9 12/4/9
f 14/8/10 18/8/10 20/4/10
f 10/8/22 9/9/22 13/9/22
f 11/2/12 15/2/12 13/9/12
f 10/8/13 14/8/13 16/4/13
f 15/2/23 16/4/23 20/4/23
f 13/9/24 17/9/24 18/8/24
f 15/2/16 19/2/16 17/9/16
