# Blender 4.2.0
# www.blender.org
mtllib sun.mtl
o Circle
v 0.000000 0.000000 -1.000000
v -0.382683 0.000000 -0.869686
v -0.707107 0.000000 -0.761300
v -0.923880 0.000000 -0.287013
v -1.000000 0.000000 -0.095671
v -0.923880 0.000000 0.463789
v -0.707107 0.000000 0.626001
v -0.382683 0.000000 0.923880
v 0.000000 0.000000 1.000000
v 0.382683 0.000000 0.923880
v 0.707107 0.000000 0.626001
v 0.923880 0.000000 0.463789
v 1.000000 0.000000 -0.095671
v 0.923880 0.000000 -0.287013
v 0.707107 0.000000 -0.761300
v 0.382683 0.000000 -0.869686
vn -0.0000 -1.0000 -0.0000
vn -0.0000 1.0000 -0.0000
vt 0.000000 0.000000
s 0
usemtl #E87C00
f 1/1/1 16/1/1 2/1/1
usemtl #E85F5A
f 4/1/2 15/1/2 3/1/2
f 4/1/2 14/1/2 15/1/2
usemtl #E81F67
f 12/1/2 5/1/2 6/1/2
f 12/1/2 13/1/2 5/1/2
usemtl #E700B5
f 8/1/2 11/1/2 7/1/2
f 8/1/2 10/1/2 11/1/2
l 3 2
l 5 4
l 7 6
l 9 8
l 10 9
l 12 11
l 14 13
l 16 15
