# Blender 4.2.0
# www.blender.org
mtllib ufo.mtl
o Circle
v 0.000005 19.507675 -0.000002
v -5.780047 21.566820 -0.000002
v -4.087109 21.566820 4.087112
v 0.000005 21.566820 -0.000002
v -4.603157 18.062664 4.603159
v -6.509849 18.062664 -0.000002
v 0.000005 18.062662 -0.000002
v -3.581548 24.462675 3.673146
v -5.065076 24.800323 -0.000002
v 0.000005 23.373085 -0.000002
v -1.519210 27.181959 -0.000002
v -1.074242 26.859930 1.326054
v 0.000005 26.082487 -0.000002
v 0.000005 27.184307 -0.000002
v -12.374912 19.738081 -0.000002
v -12.366518 19.304897 -0.000002
v -12.404327 19.507675 -0.000002
v -8.744447 19.304897 8.744450
v -8.750382 19.738081 8.750384
v -8.771182 19.507675 8.771185
v -13.744597 0.000000 0.000000
v -9.718899 0.000000 9.718899
vn -0.0000 -0.0000 1.0000
vn -0.7071 -0.0000 -0.7071
vn -0.7160 -0.0000 -0.6981
vn 0.2067 0.9746 -0.0856
vn 0.9031 -0.2111 -0.3741
vn -0.7770 -0.0000 -0.6295
vn 0.5123 -0.8114 -0.2815
vn 0.0015 -0.9716 -0.2365
vn -0.0000 -0.0000 -1.0000
vn 0.7071 -0.0000 0.7071
vn 0.9237 0.0179 -0.3826
vn 0.2656 -0.9578 -0.1100
vn -0.0000 1.0000 -0.0000
vn 0.8665 -0.3470 -0.3589
vn -0.7069 0.0224 -0.7069
vn 0.9021 -0.1995 -0.3827
vn -0.7076 0.0500 -0.7048
vn 0.5197 -0.7737 -0.3623
vt 0.000000 0.000000
s 0
usemtl #10E70011
f 4/1/3 8/1/3 10/1/3
f 2/1/1 10/1/1 9/1/1
f 2/1/5 8/1/5 3/1/5
f 10/1/6 12/1/6 13/1/6
f 10/1/1 11/1/1 9/1/1
f 9/1/7 12/1/7 8/1/7
f 11/1/1 13/1/1 14/1/1
f 13/1/6 12/1/6 14/1/6
f 12/1/8 11/1/8 14/1/8
f 6/1/13 5/1/13 7/1/13
f 5/1/14 21/1/14 6/1/14
f 4/1/15 3/1/15 8/1/15
f 2/1/1 4/1/1 10/1/1
f 2/1/16 9/1/16 8/1/16
f 10/1/17 8/1/17 12/1/17
f 10/1/1 13/1/1 11/1/1
f 9/1/18 11/1/18 12/1/18
f 5/1/14 22/1/14 21/1/14
usemtl #6FB2BE
f 17/1/1 4/1/1 2/1/1
f 20/1/2 7/1/2 5/1/2
f 20/1/2 3/1/2 4/1/2
f 17/1/1 6/1/1 7/1/1
f 16/1/4 5/1/4 6/1/4
f 15/1/9 16/1/9 17/1/9
f 18/1/10 19/1/10 20/1/10
f 16/1/11 19/1/11 18/1/11
f 19/1/12 2/1/12 3/1/12
f 2/1/1 15/1/1 17/1/1
f 17/1/1 1/1/1 4/1/1
f 5/1/2 18/1/2 20/1/2
f 20/1/2 1/1/2 7/1/2
f 4/1/2 1/1/2 20/1/2
f 20/1/2 19/1/2 3/1/2
f 7/1/1 1/1/1 17/1/1
f 17/1/1 16/1/1 6/1/1
f 16/1/4 18/1/4 5/1/4
f 16/1/11 15/1/11 19/1/11
f 19/1/12 15/1/12 2/1/12
