# Blender 4.2.0
# www.blender.org
mtllib ufo.mtl
o Plane
o Circle
v 0.000000 0.000000 0.000000
v -0.640000 0.228000 0.000000
v -0.452548 0.228000 0.452548
v 0.000000 0.228000 0.000000
v -0.565685 -0.160000 0.565685
v -0.800000 -0.160000 0.000000
v 0.000000 -0.160000 0.000000
v -0.396570 0.548645 0.406712
v -0.560834 0.586032 0.000000
v 0.000000 0.428000 0.000000
v -0.168216 0.849740 0.000000
v -0.118947 0.814083 0.146828
v 0.000000 0.728000 0.000000
v 0.000000 0.850000 0.000000
v -1.370221 0.025512 0.000000
v -1.369291 -0.022453 -0.000000
v -1.373478 0.000000 0.000000
v -0.968235 -0.022453 0.968235
v -0.968892 0.025512 0.968892
v -0.971195 0.000000 0.971195
vn -0.0000 -0.0000 1.0000
vn -0.7071 -0.0000 -0.7071
vn -0.7160 -0.0000 -0.6981
vn 0.2337 0.9675 -0.0968
vn -0.0000 1.0000 -0.0000
vn 0.9031 -0.2111 -0.3741
vn -0.7770 -0.0000 -0.6295
vn 0.5123 -0.8114 -0.2815
vn 0.0015 -0.9716 -0.2365
vn -0.0000 -0.0000 -1.0000
vn 0.7071 -0.0000 0.7071
vn 0.9237 0.0179 -0.3826
vn 0.2656 -0.9578 -0.1100
vn -0.7069 0.0224 -0.7069
vn 0.9021 -0.1995 -0.3827
vn -0.7076 0.0500 -0.7048
vn 0.5197 -0.7737 -0.3623
vt 0.000000 0.000000
s 0
f 17/1/1 4/1/1 2/1/1
f 20/1/2 7/1/2 5/1/2
f 20/1/2 3/1/2 4/1/2
f 4/1/3 8/1/3 10/1/3
f 17/1/1 6/1/1 7/1/1
f 18/1/4 6/1/4 16/1/4
f 6/1/5 5/1/5 7/1/5
f 2/1/1 10/1/1 9/1/1
f 2/1/6 8/1/6 3/1/6
f 10/1/7 12/1/7 13/1/7
f 10/1/1 11/1/1 9/1/1
f 9/1/8 12/1/8 8/1/8
f 11/1/1 13/1/1 14/1/1
f 13/1/7 12/1/7 14/1/7
f 12/1/9 11/1/9 14/1/9
f 15/1/10 16/1/10 17/1/10
f 18/1/11 19/1/11 20/1/11
f 16/1/12 19/1/12 18/1/12
f 15/1/13 3/1/13 19/1/13
f 2/1/1 15/1/1 17/1/1
f 17/1/1 1/1/1 4/1/1
f 5/1/2 18/1/2 20/1/2
f 20/1/2 1/1/2 7/1/2
f 4/1/2 1/1/2 20/1/2
f 20/1/2 19/1/2 3/1/2
f 4/1/14 3/1/14 8/1/14
f 7/1/1 1/1/1 17/1/1
f 17/1/1 16/1/1 6/1/1
f 18/1/4 5/1/4 6/1/4
f 2/1/1 4/1/1 10/1/1
f 2/1/15 9/1/15 8/1/15
f 10/1/16 8/1/16 12/1/16
f 10/1/1 13/1/1 11/1/1
f 9/1/17 11/1/17 12/1/17
f 16/1/12 15/1/12 19/1/12
f 15/1/13 2/1/13 3/1/13
